<?xml version="1.0" encoding="UTF-8"?>
<svg width="84px" height="67px" viewBox="0 0 84 67" version="1.1" xmlns="http://www.w3.org/2000/svg" xmlns:xlink="http://www.w3.org/1999/xlink">
    <!-- Generator: Sketch 50.2 (55047) - http://www.bohemiancoding.com/sketch -->
    <title>download</title>
    <desc>Created with Sketch.</desc>
    <defs></defs>
    <g id="Page-1" stroke="none" stroke-width="1" fill="none" fill-rule="evenodd">
        <g id="download" fill="#FFFFFF" fill-rule="nonzero">
            <path d="M51.487,36.604 C58.504,32.786 71.507,36.604 71.507,36.604 C66.932,34.505 63.395,34.342 61.537,33.724 C62.989,30.843 66.141,27.629 69.753,23.811 C67.689,25.05 65.315,26.807 62.529,30.522 C59.742,34.237 55.408,33.522 53.86,32.799 C52.312,32.077 53.035,27.265 54.479,22.621 C52.002,26.852 52.209,29.999 51.332,32.58 C50.455,35.16 47.153,34.747 42.406,39.081 C42.031,39.437 41.683,39.803 41.335,40.169 C41.683,39.791 42.039,39.424 42.406,39.081 C39.799,33.897 41.519,29.209 44.824,25.678 C41.744,27.557 40.766,28.834 39.715,30.637 C37.536,16.738 44.824,10.877 44.824,10.877 C41.068,12.604 38.963,20.571 37.836,24.178 C36.334,21.323 31.827,17.792 31.827,17.792 C31.827,17.792 35.057,22.074 37.086,28.16 C39.115,34.245 38.213,40.106 35.959,40.481 C30.4,39.579 28.822,34.846 27.507,31.991 C27.77,34.395 28.972,37.25 28.972,37.25 C28.972,37.25 26.267,37.476 23.412,36.423 C19.805,34.287 16.486,27.364 12.566,24.985 C14.777,26.642 18.887,33.625 21.534,36.949 C18.679,37.024 13.044,39.354 10.189,42.058 C18.454,36.949 24.915,37.777 28.672,39.128 C28.897,40.631 24.765,45.589 22.51,48.144 C25.891,45.138 28.672,42.433 30.7,39.804 C35.494,41.419 35.719,46.31 34.852,48.749 C33.101,53.676 32.808,58.009 32.808,59.904 C32.808,62.999 34.182,67.002 34.182,67.002 L39.413,67.002 L42.715,67.002 C42.715,67.002 43.025,67.002 46.842,67.002 C45.088,67.002 39.515,61.761 39.515,54.331 C39.515,43.392 49.525,37.43 50.66,37.637 C51.796,37.844 55.82,42.486 60.258,44.137 C56.646,42.487 52.416,38.152 51.487,36.604 Z" id="Shape"></path>
            <path d="M12.565,24.986 C12.328,24.807 12.105,24.672 11.916,24.628 C12.134,24.73 12.35,24.855 12.565,24.986 Z" id="Shape"></path>
            <path d="M3.576,47.214 C7.987,47.402 9.976,44.289 9.803,42.386 C9.803,42.387 4.701,42.441 3.576,47.214 Z" id="Shape"></path>
            <path d="M13.079,37.863 C13.079,37.863 9.433,34.294 5.263,36.873 C8.248,40.125 11.856,39.33 13.079,37.863 Z" id="Shape"></path>
            <path d="M6.499,40.694 C6.499,40.694 3.209,38.329 0.246,40.854 C2.978,43.049 5.715,41.993 6.499,40.694 Z" id="Shape"></path>
            <path d="M16.908,34.697 C16.908,34.697 14.841,35.036 14.68,37.042 C16.481,36.846 17.096,35.458 16.908,34.697 Z" id="Shape"></path>
            <path d="M13.8,29.802 C14.067,32.249 15.952,33.083 16.988,32.827 C16.988,32.827 16.526,30.019 13.8,29.802 Z" id="Shape"></path>
            <path d="M10.022,32.997 C11.668,35.399 14.097,35.216 15.034,34.37 C15.034,34.37 12.985,31.701 10.022,32.997 Z" id="Shape"></path>
            <path d="M8.256,28.121 C10.975,30.145 13.581,29.025 14.293,27.739 C14.293,27.739 11.028,25.576 8.256,28.121 Z" id="Shape"></path>
            <path d="M6.595,33.536 C8.627,32.851 8.983,31.094 8.57,30.26 C8.57,30.259 6.271,31.18 6.595,33.536 Z" id="Shape"></path>
            <path d="M6.985,28.964 C6.985,28.964 5.338,27.114 3.232,28.221 C4.568,29.898 6.342,29.636 6.985,28.964 Z" id="Shape"></path>
            <path d="M8.739,20.773 C8.739,20.773 7.031,17.644 3.719,18.511 C5.045,21.297 7.619,21.505 8.739,20.773 Z" id="Shape"></path>
            <path d="M11.974,21.457 C11.974,21.457 13.379,17.697 10.201,15.517 C8.807,18.697 10.526,21.042 11.974,21.457 Z" id="Shape"></path>
            <path d="M15.356,24.787 C15.356,24.787 17.869,21.07 14.987,17.868 C12.639,20.958 13.892,23.957 15.356,24.787 Z" id="Shape"></path>
            <path d="M17.854,27.923 C17.854,27.923 19.684,27.047 19.29,25.14 C17.669,25.809 17.473,27.264 17.854,27.923 Z" id="Shape"></path>
            <path d="M20.087,31.392 C20.087,31.392 21.722,29.584 20.417,27.642 C18.917,29.125 19.362,30.833 20.087,31.392 Z" id="Shape"></path>
            <path d="M25.123,29.062 C24.79,30.929 26.002,31.955 26.825,31.988 C26.825,31.988 27.089,29.812 25.123,29.062 Z" id="Shape"></path>
            <path d="M33.1,29.769 C30.353,30.006 29.372,32.096 29.634,33.263 C29.634,33.263 32.79,32.811 33.1,29.769 Z" id="Shape"></path>
            <path d="M32.039,24.773 C28.489,25.831 27.767,28.846 28.428,30.31 C28.428,30.311 32.457,28.859 32.039,24.773 Z" id="Shape"></path>
            <path d="M25.226,24.312 C24.884,26.751 26.507,28.023 27.577,28.028 C27.577,28.028 27.813,25.19 25.226,24.312 Z" id="Shape"></path>
            <path d="M18.058,19.775 C17.792,21.667 19.052,22.655 19.882,22.658 C19.882,22.659 20.066,20.457 18.058,19.775 Z" id="Shape"></path>
            <path d="M21.659,23.785 C21.659,23.785 24.416,24.015 25.269,21.502 C22.899,21.168 21.662,22.747 21.659,23.785 Z" id="Shape"></path>
            <path d="M21.377,21.062 C21.377,21.062 24.545,20.113 24.396,16.944 C21.615,17.609 20.928,19.904 21.377,21.062 Z" id="Shape"></path>
            <path d="M23.018,10.856 C20.486,12.185 20.384,14.579 21.105,15.59 C21.104,15.59 23.942,13.892 23.018,10.856 Z" id="Shape"></path>
            <path d="M19.891,12.555 C19.891,12.555 19.923,8.774 16.41,7.868 C16.198,11.13 18.474,12.655 19.891,12.555 Z" id="Shape"></path>
            <path d="M16.247,14.289 C16.247,14.289 16.268,11.772 13.931,11.17 C13.79,13.341 15.304,14.355 16.247,14.289 Z" id="Shape"></path>
            <path d="M18.673,16.192 C18.673,16.192 16.798,14.514 14.801,15.869 C16.338,17.41 18.1,16.943 18.673,16.192 Z" id="Shape"></path>
            <path d="M26.875,21.835 C26.634,23.556 27.779,24.454 28.534,24.458 C28.535,24.458 28.702,22.454 26.875,21.835 Z" id="Shape"></path>
            <path d="M28.315,20.604 C30.089,22.184 31.979,21.561 32.555,20.706 C32.555,20.706 30.404,18.997 28.315,20.604 Z" id="Shape"></path>
            <path d="M31.361,17.719 C31.361,17.719 29.874,13.296 25.413,13.658 C26.482,17.547 29.75,18.404 31.361,17.719 Z" id="Shape"></path>
            <path d="M35.252,19.25 C35.252,19.25 38.62,16.02 36.392,12.138 C33.329,14.762 33.946,18.084 35.252,19.25 Z" id="Shape"></path>
            <path d="M31.949,15.947 C31.949,15.947 35.317,12.718 33.089,8.836 C30.027,11.46 30.644,14.782 31.949,15.947 Z" id="Shape"></path>
            <path d="M36.611,6.813 C36.611,6.813 38.37,3.215 35.427,0.746 C33.736,3.765 35.215,6.259 36.611,6.813 Z" id="Shape"></path>
            <path d="M42.804,10.996 C42.804,10.996 45.27,7.177 42.284,4 C39.973,7.175 41.305,10.185 42.804,10.996 Z" id="Shape"></path>
            <path d="M54.213,6.044 C49.654,5.077 47.039,7.978 46.885,9.994 C46.885,9.994 52.216,10.816 54.213,6.044 Z" id="Shape"></path>
            <path d="M46.646,3.748 C44.825,5.107 45.046,6.998 45.735,7.702 C45.736,7.702 47.752,6.015 46.646,3.748 Z" id="Shape"></path>
            <path d="M52.238,14.093 C49.62,10.927 46.228,11.498 45.018,12.806 C45.018,12.806 48.247,16.292 52.238,14.093 Z" id="Shape"></path>
            <path d="M47.847,17.73 C46.222,15.765 44.116,16.119 43.364,16.932 C43.364,16.932 45.37,19.096 47.847,17.73 Z" id="Shape"></path>
            <path d="M45.683,24.746 C45.683,24.746 49.579,24.133 49.908,20.364 C46.515,20.705 45.339,23.307 45.683,24.746 Z" id="Shape"></path>
            <path d="M56.418,21.442 C56.418,21.442 61.966,20.568 62.435,15.201 C57.604,15.688 55.929,19.394 56.418,21.442 Z" id="Shape"></path>
            <path d="M67.765,23.559 C67.765,23.559 71.621,21.672 70.756,17.647 C67.336,19.089 66.946,22.173 67.765,23.559 Z" id="Shape"></path>
            <path d="M63.811,27.964 C63.811,27.964 66.082,25.383 64.205,22.673 C62.119,24.791 62.779,27.191 63.811,27.964 Z" id="Shape"></path>
            <path d="M74.215,13.705 C72.069,14.193 71.522,15.953 71.857,16.848 C71.856,16.847 74.304,16.145 74.215,13.705 Z" id="Shape"></path>
            <path d="M76.291,15.896 C72.26,16.813 71.232,20.119 71.861,21.799 C71.86,21.8 76.457,20.48 76.291,15.896 Z" id="Shape"></path>
            <path d="M72.063,23.319 C72.063,23.319 75.463,26.681 79.379,24.291 C76.606,21.225 73.221,21.947 72.063,23.319 Z" id="Shape"></path>
            <path d="M69.063,26.493 C69.063,26.493 70.993,30.639 75.3,29.8 C73.834,26.128 70.559,25.648 69.063,26.493 Z" id="Shape"></path>
            <path d="M74.017,35.575 C74.017,35.575 76.08,40.008 80.684,39.111 C79.117,35.186 75.616,34.671 74.017,35.575 Z" id="Shape"></path>
            <path d="M73.378,39.529 C73.378,39.529 74.257,43.332 78.002,43.393 C77.426,40.068 74.775,39.088 73.378,39.529 Z" id="Shape"></path>
            <path d="M69.651,39.474 C69.651,39.474 68.573,43.224 71.817,45.096 C72.928,41.91 71.088,39.767 69.651,39.474 Z" id="Shape"></path>
            <path d="M69.83,37.62 C69.83,37.62 70.818,39.363 72.669,38.844 C71.899,37.293 70.453,37.199 69.83,37.62 Z" id="Shape"></path>
            <path d="M67.386,38.359 C67.386,38.359 65.344,40.255 66.639,42.595 C68.492,41.056 68.155,39.068 67.386,38.359 Z" id="Shape"></path>
            <path d="M67.849,45.496 C65.94,42.295 62.821,42.335 61.551,43.34 C61.551,43.34 63.963,46.916 67.849,45.496 Z" id="Shape"></path>
            <path d="M64.341,38.727 C60.7,37.934 58.597,40.237 58.464,41.851 C58.464,41.851 62.722,42.535 64.341,38.727 Z" id="Shape"></path>
            <path d="M54.955,37.936 C54.955,37.936 57.564,39.357 59.49,37.253 C57.305,35.903 55.411,36.917 54.955,37.936 Z" id="Shape"></path>
            <path d="M65.124,47.573 C65.124,47.573 65.182,51.212 68.583,51.999 C68.708,48.855 66.484,47.447 65.124,47.573 Z" id="Shape"></path>
            <path d="M60.543,45.669 C60.543,45.669 60.028,49.957 63.902,51.428 C64.553,47.752 62.164,45.738 60.543,45.669 Z" id="Shape"></path>
            <path d="M56.146,43.576 C56.146,43.576 54.116,46.888 56.73,49.544 C58.641,46.784 57.445,44.241 56.146,43.576 Z" id="Shape"></path>
            <path d="M49.401,46.55 C52.38,45.302 52.729,42.62 52.02,41.409 C52.02,41.409 48.657,43.041 49.401,46.55 Z" id="Shape"></path>
            <path d="M51.157,38.693 C51.157,38.693 48.184,39.022 47.804,41.865 C50.385,41.724 51.367,39.795 51.157,38.693 Z" id="Shape"></path>
            <path d="M53.262,40.488 C53.262,40.488 52.295,42.544 53.986,43.919 C54.919,42.191 54.06,40.789 53.262,40.488 Z" id="Shape"></path>
            <path d="M80.944,18.874 C78.129,18.29 76.523,20.083 76.435,21.327 C76.435,21.327 79.723,21.822 80.944,18.874 Z" id="Shape"></path>
            <path d="M55.942,24.948 C55.942,24.948 59.489,25.957 61.248,22.889 C58.236,21.847 56.217,23.592 55.942,24.948 Z" id="Shape"></path>
            <path d="M58.1,29.837 C58.1,29.837 60.826,29.407 61.056,26.771 C58.682,27.01 57.86,28.83 58.1,29.837 Z" id="Shape"></path>
            <path d="M57.18,31.054 C57.18,31.054 57.686,28.66 55.574,27.636 C55.022,29.676 56.271,30.934 57.18,31.054 Z" id="Shape"></path>
            <path d="M57.804,30.763 C57.804,30.763 59.084,32.012 60.542,31.109 C59.498,29.971 58.234,30.248 57.804,30.763 Z" id="Shape"></path>
            <path d="M74.457,31.97 C71.445,30.928 69.426,32.673 69.151,34.029 C69.151,34.029 72.698,35.038 74.457,31.97 Z" id="Shape"></path>
            <path d="M65.329,32.956 C65.329,32.956 69.013,33.129 70.025,29.741 C66.855,29.413 65.287,31.573 65.329,32.956 Z" id="Shape"></path>
            <path d="M78.051,28.599 C78.051,28.599 80.765,31.095 83.716,29.146 C81.494,26.86 78.906,27.511 78.051,28.599 Z" id="Shape"></path>
            <path d="M78.867,26.084 C76.846,25.89 75.858,27.273 75.891,28.154 C75.891,28.154 78.239,28.247 78.867,26.084 Z" id="Shape"></path>
            <path d="M79.216,32.122 C78.921,29.722 77.058,28.928 76.044,29.193 C76.043,29.193 76.539,31.948 79.216,32.122 Z" id="Shape"></path>
            <path d="M52.988,17.274 C52.136,19.736 53.563,21.388 54.671,21.612 C54.671,21.613 55.496,18.713 52.988,17.274 Z" id="Shape"></path>
            <path d="M53.395,9.242 C52.681,11.307 53.877,12.692 54.807,12.88 C54.806,12.88 55.498,10.449 53.395,9.242 Z" id="Shape"></path>
            <path d="M63.062,14.532 C63.062,14.532 63.753,12.1 61.651,10.893 C60.936,12.959 62.132,14.343 63.062,14.532 Z" id="Shape"></path>
            <path d="M69.743,16.253 C69.743,16.253 67.201,14.02 64.535,15.868 C66.621,17.918 68.981,17.268 69.743,16.253 Z" id="Shape"></path>
            <path d="M64.734,11.36 C64.734,11.36 66.359,9.423 64.933,7.463 C63.436,9.056 63.962,10.809 64.734,11.36 Z" id="Shape"></path>
            <path d="M59.375,13.392 C57.277,12.676 55.879,13.897 55.691,14.84 C55.692,14.84 58.162,15.53 59.375,13.392 Z" id="Shape"></path>
            <path d="M60.392,8.246 C57.134,8.342 55.839,10.742 56.066,12.136 C56.066,12.136 59.821,11.815 60.392,8.246 Z" id="Shape"></path>
            <path d="M65.149,13.787 C65.149,13.787 69.717,13.397 70.411,9.055 C66.448,9.17 64.871,12.09 65.149,13.787 Z" id="Shape"></path>
            <path d="M41.831,23.125 C41.687,24.999 42.985,25.891 43.799,25.844 C43.799,25.844 43.844,23.669 41.831,23.125 Z" id="Shape"></path>
            <path d="M45.443,22.855 C45.443,22.855 46.75,20.759 45.103,19.057 C43.872,20.803 44.621,22.427 45.443,22.855 Z" id="Shape"></path>
            <path d="M49.855,27.819 C49.855,27.819 48.04,25.361 45.332,26.485 C46.781,28.692 48.99,28.57 49.855,27.819 Z" id="Shape"></path>
            <path d="M39.812,5.417 C37.664,6.174 37.312,8.05 37.76,8.93 C37.76,8.93 40.193,7.917 39.812,5.417 Z" id="Shape"></path>
            <path d="M35.742,8.688 C35.742,8.688 34.59,6.914 32.67,7.577 C33.58,9.164 35.112,9.17 35.742,8.688 Z" id="Shape"></path>
            <path d="M28.751,12.489 C28.751,12.489 29.836,9.119 26.951,7.329 C25.85,10.185 27.459,12.18 28.751,12.489 Z" id="Shape"></path>
            <path d="M11.109,24.006 C11.109,24.006 7.725,20.207 3.401,22.481 C6.145,25.925 9.788,25.386 11.109,24.006 Z" id="Shape"></path>
            <path d="M6.111,30.517 C6.111,30.517 2.47,29.167 0.37,32.248 C3.451,33.588 5.713,31.92 6.111,30.517 Z" id="Shape"></path>
            <path d="M11.175,45.937 C14.61,45.236 15.546,42.454 15.048,41.021 C15.047,41.021 11.125,42.042 11.175,45.937 Z" id="Shape"></path>
        </g>
    </g>
</svg>